<?xml version="1.0" encoding="UTF-8" standalone="no"?>
<svg
   height="24"
   viewBox="0 -960 960 960"
   width="24"
   version="1.1"
   id="svg309"
   sodipodi:docname="check_circle_FILL0_wght400_GRAD-25_opsz24.svg"
   inkscape:version="1.2.2 (b0a84865, 2022-12-01)"
   inkscape:export-filename="check_circle_FILL0_wght400_GRAD-25_opsz24.png"
   inkscape:export-xdpi="96"
   inkscape:export-ydpi="96"
   xmlns:inkscape="http://www.inkscape.org/namespaces/inkscape"
   xmlns:sodipodi="http://sodipodi.sourceforge.net/DTD/sodipodi-0.dtd"
   xmlns="http://www.w3.org/2000/svg"
   xmlns:svg="http://www.w3.org/2000/svg">
  <defs
     id="defs313" />
  <sodipodi:namedview
     id="namedview311"
     pagecolor="#505050"
     bordercolor="#eeeeee"
     borderopacity="1"
     inkscape:showpageshadow="0"
     inkscape:pageopacity="0"
     inkscape:pagecheckerboard="0"
     inkscape:deskcolor="#505050"
     showgrid="false"
     inkscape:zoom="9.8333333"
     inkscape:cx="8.0847458"
     inkscape:cy="12.050847"
     inkscape:window-width="1920"
     inkscape:window-height="1027"
     inkscape:window-x="-4"
     inkscape:window-y="65"
     inkscape:window-maximized="0"
     inkscape:current-layer="svg309" />
  <path
     d="m425-301 275-275-53-53-222 222-112-112-53 53 165 165Zm55 211q-80.907 0-152.065-30.763-71.159-30.763-123.797-83.5Q151.5-257 120.75-328.087 90-399.175 90-480q0-80.907 30.763-152.065 30.763-71.159 83.5-123.797Q257-808.5 328.087-839.25 399.175-870 480-870q80.907 0 152.065 30.763 71.159 30.763 123.797 83.5Q808.5-703 839.25-631.913 870-560.825 870-480q0 80.907-30.763 152.065-30.763 71.159-83.5 123.797Q703-151.5 631.913-120.75 560.825-90 480-90Zm0-75q131.5 0 223.25-91.75T795-480q0-131.5-91.75-223.25T480-795q-131.5 0-223.25 91.75T165-480q0 131.5 91.75 223.25T480-165Zm0-315Z"
     id="path307"
     style="fill:#495e57;fill-opacity:1" />
</svg>
