<?xml version="1.0" encoding="UTF-8" standalone="no"?>
<svg
   height="24"
   viewBox="0 -960 960 960"
   width="24"
   version="1.1"
   id="svg3674"
   sodipodi:docname="check_circle_FILL1_wght400_GRAD-25_opsz24.svg"
   inkscape:export-filename="check_circle_FILL1_wght400_GRAD-25_opsz24.png"
   inkscape:export-xdpi="96"
   inkscape:export-ydpi="96"
   inkscape:version="1.2.2 (b0a84865, 2022-12-01)"
   xmlns:inkscape="http://www.inkscape.org/namespaces/inkscape"
   xmlns:sodipodi="http://sodipodi.sourceforge.net/DTD/sodipodi-0.dtd"
   xmlns="http://www.w3.org/2000/svg"
   xmlns:svg="http://www.w3.org/2000/svg">
  <defs
     id="defs3678" />
  <sodipodi:namedview
     id="namedview3676"
     pagecolor="#505050"
     bordercolor="#eeeeee"
     borderopacity="1"
     inkscape:showpageshadow="0"
     inkscape:pageopacity="0"
     inkscape:pagecheckerboard="0"
     inkscape:deskcolor="#505050"
     showgrid="false"
     inkscape:zoom="9.8333333"
     inkscape:cx="12.050847"
     inkscape:cy="12.050847"
     inkscape:window-width="1920"
     inkscape:window-height="1027"
     inkscape:window-x="0"
     inkscape:window-y="25"
     inkscape:window-maximized="1"
     inkscape:current-layer="svg3674" />
  <path
     d="m425-301 275-275-53-53-222 222-112-112-53 53 165 165Zm55 211q-80.907 0-152.065-30.763-71.159-30.763-123.797-83.5Q151.5-257 120.75-328.087 90-399.175 90-480q0-80.907 30.763-152.065 30.763-71.159 83.5-123.797Q257-808.5 328.087-839.25 399.175-870 480-870q80.907 0 152.065 30.763 71.159 30.763 123.797 83.5Q808.5-703 839.25-631.913 870-560.825 870-480q0 80.907-30.763 152.065-30.763 71.159-83.5 123.797Q703-151.5 631.913-120.75 560.825-90 480-90Z"
     id="path3672" />
  <path
     style="fill:#495e57;stroke-width:0.101695;fill-opacity:1"
     d=""
     id="path4298"
     transform="matrix(40,0,0,40,0,-960)" />
  <path
     style="fill:#495e57;fill-opacity:1;stroke-width:0.101695"
     d="M 10.580229,21.605898 C 6.6662667,20.98949 3.4977377,18.045562 2.5239461,14.120688 2.2657834,13.080161 2.2913627,10.733044 2.5721566,9.6969745 3.5502394,6.0880574 6.2683305,3.4198584 9.879312,2.5239461 c 1.040527,-0.2581627 3.387644,-0.2325834 4.423714,0.048211 3.608988,0.978102 6.281525,3.7009062 7.172253,7.3071554 0.236919,0.9592005 0.236919,3.2821755 0,4.2413765 -0.4645,1.880597 -1.270496,3.301646 -2.66172,4.69287 -1.380892,1.380892 -2.835288,2.209636 -4.64024,2.6441 -0.805538,0.193897 -2.784703,0.275552 -3.59309,0.148239 z m 3.55417,-8.536907 3.455313,-3.4564336 -0.656325,-0.6622109 C 16.572408,8.5861305 16.23029,8.2881356 16.173123,8.2881356 c -0.05717,0 -1.328244,1.2236756 -2.824618,2.7192794 l -2.720679,2.719279 -1.3491746,-1.346398 c -0.7420461,-0.740519 -1.395646,-1.346398 -1.4524441,-1.346398 -0.056798,0 -0.3985328,0.297912 -0.7594105,0.662026 l -0.656141,0.662026 2.0818774,2.083737 c 1.1450326,1.146055 2.1054298,2.083737 2.1342158,2.083737 0.02879,0 1.607229,-1.555396 3.50765,-3.456433 z"
     id="path4438"
     transform="matrix(40,0,0,40,0,-960)" />
  <path
     style="fill:#495e57;fill-opacity:1;stroke-width:0.101695"
     d=""
     id="path4440"
     transform="matrix(40,0,0,40,0,-960)" />
  <path
     style="fill:#495e57;fill-opacity:1;stroke-width:0.101695"
     d=""
     id="path4442"
     transform="matrix(40,0,0,40,0,-960)" />
</svg>
